<svg width="260" height="62" viewBox="0 0 260 62" fill="none" xmlns="http://www.w3.org/2000/svg">
<g clip-path="url(#clip0_1503_8)">
<path d="M98.2792 13.6549H104.342V48.4729H99.1752L79.8707 23.7168V48.4729H73.8082V13.6549H79.51L98.2792 37.741V13.6549Z" fill="#ED4746"/>
<path d="M115.85 19.2111H126.939V48.357H133.153V19.2111H144.254V13.5275H115.85V19.2111Z" fill="#ED4746"/>
<path d="M161.918 13.5275H155.75V48.357H180.326V42.7889H161.918V13.5275Z" fill="#ED4746"/>
<path d="M236.425 30.8091V19.13H245.384C249.934 19.13 252.634 21.1516 252.634 24.8944V24.9753C252.634 28.4987 249.829 30.8091 245.419 30.8091H236.425V30.8091ZM250.539 35.1873C255.45 33.8011 258.894 30.3586 258.894 24.6519V24.5479C258.894 21.5097 257.882 18.922 255.997 17.039C253.739 14.7864 250.295 13.5388 245.885 13.5388H230.269V48.3567H236.425V36.227H244.139L252.739 48.3567H259.988L250.528 35.1873H250.539Z" fill="#ED4746"/>
<path d="M191.754 19.0263V48.357H217.714V42.8929H197.234V33.5357H212.931V28.0831H197.234V19.0263H217.714V13.5275H191.754V19.0263Z" fill="#ED4746"/>
<path d="M3.05176e-05 0.000244141V62.0002H62.1841V0.000244141H3.05176e-05ZM42.7981 48.4728L30.9757 20.8286L19.1649 48.4728H12.8813L28.2412 13.5277H33.9429L49.2795 48.4612H42.7865L42.7981 48.4728Z" fill="#ED4746"/>
</g>
<defs>
<clipPath id="clip0_1503_8">
<rect width="260" height="62" fill="white"/>
</clipPath>
</defs>
</svg>
